<svg xmlns="http://www.w3.org/2000/svg" width="27" height="14" viewBox="0 0 27 14"><path d="M13.588 0c.187 0 .34.153.336.341l-.032 2.04c.63.021 1.257.07 1.876.154l.33-2.01a.339.339 0 01.392-.278c.195.032.322.202.29.387l-.325 2.005c.62.108 1.232.247 1.837.414l.612-1.928a.348.348 0 01.432-.223c.188.062.29.25.234.428l-.613 1.922a19.282 19.282 0 011.759.665l.882-1.804a.344.344 0 01.456-.156.336.336 0 01.167.452l-.878 1.793c.566.272 1.115.578 1.65.906l1.118-1.633a.344.344 0 01.474-.09.333.333 0 01.1.47L23.569 5.48c.52.352 1.02.728 1.505 1.135l1.323-1.434a.346.346 0 01.485-.025.33.33 0 01.01.495l-1.316 1.427c.195.174.386.355.574.54l.127.125a.503.503 0 010 .724l-.127.126a18.219 18.219 0 01-6.018 3.927c-2.18.867-4.48 1.31-6.845 1.31-2.364 0-4.665-.44-6.845-1.31A18.038 18.038 0 01.424 8.593l-.127-.126a.494.494 0 01-.152-.362c0-.135.056-.268.152-.362l.127-.125c.312-.303.627-.595.956-.874L.081 5.25a.333.333 0 01.039-.473.348.348 0 01.488.031l1.307 1.5a18.587 18.587 0 011.532-1.085L2.364 3.534a.335.335 0 01.106-.467.352.352 0 01.482.101L4.038 4.86A17.415 17.415 0 015.708 4l-.83-1.845a.334.334 0 01.173-.445c.18-.08.385 0 .46.167l.835 1.848c.035-.013.07-.03.106-.045.552-.22 1.108-.407 1.67-.574l-.555-1.957a.331.331 0 01.237-.414.339.339 0 01.429.23l.555 1.96a17.526 17.526 0 011.844-.366l-.258-2.02a.335.335 0 01.294-.375.343.343 0 01.39.289l.265 2.023a18.599 18.599 0 011.879-.105l.032-2.04c0-.185.156-.334.347-.331zm.784 3.423l.093.02c2.28.542 3.971 2.481 3.974 4.789 0 1.94-1.193 3.621-2.933 4.429a17.23 17.23 0 004.255-1.098 17.005 17.005 0 005.422-3.468 16.943 16.943 0 00-5.422-3.468 17.264 17.264 0 00-5.39-1.204zm-2.53.028l-.065.006a17.25 17.25 0 00-4.921 1.17 17.042 17.042 0 00-5.423 3.468 17.026 17.026 0 005.423 3.468c1.254.5 2.55.85 3.876 1.047-1.683-.826-2.83-2.478-2.83-4.378 0-1.024.33-1.98.906-2.768.028.882.8 1.593 1.753 1.593.97 0 1.753-.734 1.753-1.643 0-.812-.629-1.485-1.455-1.62.311-.144.64-.26.982-.343z" fill="currentColor" fill-rule="nonzero"/></svg>