<svg xmlns="http://www.w3.org/2000/svg" viewBox="0 0 20 20"><g fill-rule="nonzero" fill="none"><path fill="#FFF" d="M6.77.57c-2.43.832-4.502 2.653-5.653 4.95a9.77 9.77 0 00-.866 2.508 9.997 9.997 0 00.866 6.452 9.979 9.979 0 002.71 3.33 9.95 9.95 0 003.626 1.827c1.659.447 3.43.436 5.106.056 1.514-.347 2.944-1.073 4.083-2.123 1.207-1.112 2.067-2.57 2.526-4.14.497-1.715.564-3.542.251-5.296h-9.391v3.894h5.436a4.703 4.703 0 01-2 3.084 5.685 5.685 0 01-2.196.866c-.788.134-1.598.15-2.38-.006a5.82 5.82 0 01-2.223-.96A6.183 6.183 0 014.38 11.95a6.039 6.039 0 010-3.883 6.143 6.143 0 011.447-2.352 5.9 5.9 0 012.977-1.654 5.916 5.916 0 012.928.118 5.41 5.41 0 012.15 1.262c.615-.609 1.224-1.223 1.839-1.832.318-.33.659-.643.972-.983A9.662 9.662 0 0013.48.636 10.004 10.004 0 006.77.57z"/><path fill="#E94435" d="M6.77.57a10.057 10.057 0 016.722.061 9.676 9.676 0 013.212 1.99c-.313.334-.648.653-.972.982-.615.61-1.224 1.224-1.838 1.833a5.36 5.36 0 00-2.151-1.263 5.9 5.9 0 00-2.927-.117 5.934 5.934 0 00-2.978 1.653 6.163 6.163 0 00-1.447 2.352c-1.09-.843-2.179-1.692-3.268-2.536A10.002 10.002 0 016.77.57z"/><path fill="#F8BB15" d="M.251 8.028c.174-.872.47-1.715.866-2.508 1.09.843 2.18 1.692 3.268 2.536a6.045 6.045 0 000 3.883c-1.089.843-2.178 1.692-3.268 2.536a9.968 9.968 0 01-.866-6.447z"/><path fill="#547DBE" d="M10.034 8.128h9.39c.313 1.755.246 3.581-.25 5.297-.459 1.57-1.32 3.033-2.526 4.14-1.056-.822-2.117-1.643-3.168-2.464a4.688 4.688 0 002-3.084h-5.435c-.017-1.29-.011-2.587-.011-3.889z"/><path fill="#34A751" d="M1.117 14.48c1.09-.843 2.18-1.692 3.268-2.536a6.16 6.16 0 002.285 3.062 5.902 5.902 0 002.224.96c.782.157 1.598.14 2.38.006a5.674 5.674 0 002.195-.866c1.056.821 2.118 1.643 3.168 2.464-1.14 1.056-2.57 1.776-4.084 2.123-1.67.38-3.441.39-5.106-.056a9.966 9.966 0 01-3.626-1.827 10.146 10.146 0 01-2.704-3.33z"/></g></svg>