<svg width="16" height="16" viewBox="0 0 16 16" xmlns="http://www.w3.org/2000/svg">
  <path d="M9.5 16c-.75 0-1.45-.3-1.95-.8L.8 8.45C.3 7.95 0 7.25 0 6.5V2.75C0 1.25 1.25 0 2.75 0H6.5c.75 0 1.4.3 1.95.8l6.75 6.75c.5.5.8 1.2.8 1.95s-.3 1.4-.8 1.95l-3.75 3.75c-.5.5-1.2.8-1.95.8zm-3-14.5H2.75c-.7 0-1.25.55-1.25 1.25V6.5c0 .35.15.65.35.9l6.75 6.75c.25.25.55.35.9.35.3 0 .65-.15.9-.35l3.75-3.75c.25-.25.35-.55.35-.9s-.15-.65-.35-.9l-6.8-6.75c-.2-.2-.5-.35-.85-.35zM4.5 3C5.35 3 6 3.65 6 4.5S5.35 6 4.5 6 3 5.35 3 4.5 3.65 3 4.5 3z" fill="currentColor" fill-rule="nonzero"/>
</svg>
